<?xml version="1.0" standalone="no"?>
<!DOCTYPE svg PUBLIC "-//W3C//DTD SVG 20010904//EN"
 "http://www.w3.org/TR/2001/REC-SVG-20010904/DTD/svg10.dtd">
<svg version="1.0" xmlns="http://www.w3.org/2000/svg"
 width="700.000000pt" height="700.000000pt" viewBox="0 0 700.000000 700.000000"
 preserveAspectRatio="xMidYMid meet">
<metadata>
Created by potrace 1.11, written by Peter Selinger 2001-2013
</metadata>
<g transform="translate(0.000000,700.000000) scale(0.100000,-0.100000)"
fill="#000000" stroke="none">
<path d="M2786 6115 c-70 -18 -125 -71 -149 -142 -9 -26 -13 -100 -12 -241 l0
-203 -65 6 c-36 3 -83 8 -105 10 -22 2 -65 7 -95 10 -30 3 -66 7 -80 10 -14 2
-59 6 -100 10 -42 3 -87 7 -100 9 -14 3 -55 7 -92 11 -37 3 -77 8 -90 10 -13
2 -59 6 -103 10 -44 4 -88 9 -97 10 -9 2 -48 6 -85 10 -37 3 -86 8 -108 10
-22 2 -67 7 -100 10 -33 4 -71 8 -85 10 -14 2 -54 7 -90 10 -36 3 -85 8 -111
10 -90 9 -169 -34 -215 -118 l-28 -52 0 -260 -1 -260 28 -56 c28 -59 78 -102
133 -118 39 -10 138 -5 284 14 19 3 60 7 90 10 30 3 71 7 90 10 19 2 64 7 100
10 36 4 83 8 105 11 43 5 92 10 183 19 31 3 73 8 92 10 85 10 138 16 180 19
25 3 70 7 100 10 30 4 75 8 100 11 25 3 63 7 85 9 22 3 67 8 100 11 33 3 74 8
90 10 17 2 62 6 100 10 39 3 84 8 100 10 190 24 267 24 445 1 14 -2 63 -7 110
-11 47 -4 92 -9 100 -10 9 -2 47 -6 85 -10 39 -3 81 -8 95 -10 14 -2 57 -6 95
-10 39 -3 81 -8 95 -10 14 -2 57 -6 95 -10 39 -3 81 -8 95 -10 32 -5 119 -14
195 -20 33 -3 76 -7 95 -10 19 -3 62 -7 95 -10 33 -3 76 -8 95 -10 19 -3 60
-7 90 -10 74 -7 149 -15 180 -20 56 -9 188 -19 235 -19 89 1 161 54 200 147
13 31 15 83 15 291 -1 242 -2 255 -24 302 -50 108 -130 142 -286 124 -36 -5
-92 -11 -125 -14 -139 -14 -171 -18 -195 -21 -14 -2 -61 -7 -105 -10 -44 -4
-87 -8 -95 -10 -8 -2 -46 -6 -85 -10 -38 -4 -83 -8 -100 -10 -16 -2 -61 -6
-100 -10 -38 -4 -81 -8 -94 -10 -12 -2 -60 -7 -105 -11 -44 -3 -84 -8 -87 -10
-3 -2 -42 -6 -85 -9 -43 -3 -90 -8 -104 -10 -14 -2 -55 -7 -92 -10 l-68 -7 0
203 c0 112 -5 220 -10 240 -14 50 -72 113 -122 135 -37 15 -77 18 -291 19
-151 0 -264 -3 -291 -10z"/>
<path d="M3008 4575 c-1 -1 -34 -6 -73 -9 -38 -4 -86 -9 -106 -11 -70 -6 -154
-16 -174 -20 -11 -2 -22 -4 -25 -4 -3 -1 -5 -147 -5 -325 l0 -323 -85 -22
c-164 -43 -343 -119 -490 -209 -79 -49 -185 -126 -195 -143 -4 -5 -326 -9
-843 -9 -804 0 -839 -1 -879 -20 -48 -21 -69 -39 -104 -90 l-24 -35 0 -725 c0
-692 1 -727 19 -760 25 -46 60 -78 111 -101 37 -17 81 -19 696 -19 l657 0 40
-67 c22 -38 49 -79 59 -92 148 -191 291 -323 471 -434 92 -57 273 -147 295
-147 7 0 17 -4 23 -9 10 -9 147 -52 239 -75 137 -34 300 -51 475 -49 369 3
738 116 1034 317 113 77 145 103 257 217 93 94 170 192 221 281 l33 57 107 1
c182 0 281 -34 378 -130 84 -85 126 -187 131 -320 6 -179 111 -326 284 -395
l70 -29 495 -1 c534 -1 562 1 666 52 64 31 152 120 187 189 39 78 49 146 42
305 -3 78 -8 145 -10 148 -2 4 -6 34 -10 68 -7 75 -72 328 -110 433 -65 180
-229 473 -333 595 -15 18 -40 47 -56 66 -88 104 -275 282 -342 325 -16 10 -31
21 -34 25 -13 16 -185 122 -280 172 -226 119 -385 168 -740 233 -19 3 -206 8
-415 11 l-379 5 -56 42 c-179 137 -354 227 -590 302 -41 13 -89 27 -107 30
l-33 6 0 330 c0 181 -3 327 -7 325 -5 -3 -35 -1 -68 4 -33 4 -89 11 -125 14
-36 3 -83 8 -105 11 -57 7 -182 13 -187 9z"/>
</g>
</svg>
